<svg width="22" height="22" viewBox="0 0 22 22" fill="none" xmlns="http://www.w3.org/2000/svg">
<path d="M2.38547 6.18064C2.25494 5.87606 1.90221 5.73497 1.59763 5.86551C1.29305 5.99604 1.15196 6.34877 1.2825 6.65334L2.38547 6.18064ZM14.2889 12.2183L14.0692 11.66L14.0692 11.66L14.2889 12.2183ZM8.21531 12.5455C8.39603 12.2678 8.31738 11.8961 8.03963 11.7154C7.76188 11.5347 7.39021 11.6133 7.20948 11.8911L8.21531 12.5455ZM5.91441 13.8814C5.73368 14.1592 5.81234 14.5308 6.09009 14.7116C6.36784 14.8923 6.7395 14.8136 6.92023 14.5359L5.91441 13.8814ZM20.7188 6.65334C20.8493 6.34877 20.7082 5.99604 20.4037 5.86551C20.0991 5.73497 19.7464 5.87606 19.6158 6.18064L20.7188 6.65334ZM17.4173 10.2018L17.0067 9.76428L17.0067 9.76428L17.4173 10.2018ZM18.3681 12.001C18.6024 12.2353 18.9823 12.2353 19.2166 12.001C19.4509 11.7667 19.4509 11.3868 19.2166 11.1525L18.3681 12.001ZM10.4007 15.1253C10.4007 15.4567 10.6693 15.7253 11.0007 15.7253C11.332 15.7253 11.6007 15.4567 11.6007 15.1253H10.4007ZM15.0811 14.5359C15.2618 14.8136 15.6335 14.8923 15.9112 14.7116C16.189 14.5308 16.2676 14.1592 16.0869 13.8814L15.0811 14.5359ZM5.00825 10.626C5.24256 10.3917 5.24256 10.0118 5.00825 9.7775C4.77393 9.54318 4.39404 9.54318 4.15972 9.7775L5.00825 10.626ZM2.78472 11.1525C2.55041 11.3868 2.55041 11.7667 2.78472 12.001C3.01903 12.2353 3.39893 12.2353 3.63325 12.001L2.78472 11.1525ZM11.0007 12.8337V12.2337C8.01321 12.2337 5.86971 10.7452 4.45074 9.21705C3.74144 8.45319 3.2216 7.68743 2.87951 7.11271C2.7088 6.82591 2.58328 6.58827 2.50134 6.42438C2.46039 6.34248 2.43039 6.27914 2.41113 6.23745C2.40151 6.21662 2.39457 6.2012 2.3903 6.1916C2.38817 6.1868 2.3867 6.18345 2.3859 6.18161C2.38549 6.18069 2.38526 6.18014 2.38519 6.17998C2.38515 6.1799 2.38516 6.17991 2.38521 6.18002C2.38523 6.18008 2.3853 6.18023 2.38531 6.18026C2.38538 6.18044 2.38547 6.18064 1.83398 6.41699C1.2825 6.65334 1.28261 6.6536 1.28272 6.65387C1.28278 6.654 1.28291 6.6543 1.28302 6.65455C1.28323 6.65505 1.28349 6.65565 1.28379 6.65634C1.28439 6.65773 1.28516 6.65951 1.28611 6.66168C1.288 6.666 1.29057 6.67186 1.29383 6.6792C1.30036 6.69388 1.30965 6.7145 1.32174 6.74065C1.3459 6.79296 1.38125 6.86748 1.42802 6.96104C1.52154 7.14806 1.66099 7.41172 1.84836 7.72649C2.22241 8.35489 2.79111 9.1933 3.57139 10.0336C5.13159 11.7138 7.57143 13.4337 11.0007 13.4337V12.8337ZM14.2889 12.2183L14.0692 11.66C13.1699 12.0139 12.1504 12.2337 11.0007 12.2337V12.8337V13.4337C12.3076 13.4337 13.4759 13.1831 14.5087 12.7766L14.2889 12.2183ZM7.7124 12.2183L7.20948 11.8911L5.91441 13.8814L6.41732 14.2087L6.92023 14.5359L8.21531 12.5455L7.7124 12.2183ZM20.1673 6.41699C19.6158 6.18064 19.6159 6.18052 19.6159 6.18041C19.6159 6.18038 19.616 6.18028 19.616 6.18022C19.6161 6.18011 19.6161 6.18003 19.6161 6.17999C19.6162 6.17989 19.6161 6.17991 19.6161 6.18005C19.616 6.18034 19.6156 6.18111 19.6151 6.18234C19.614 6.18481 19.6121 6.18916 19.6093 6.19532C19.6038 6.20764 19.595 6.22719 19.5828 6.25344C19.5583 6.30595 19.5203 6.38515 19.4685 6.48669C19.3649 6.68992 19.2063 6.98183 18.9907 7.32787C18.5584 8.02168 17.9024 8.92355 17.0067 9.76428L17.4173 10.2018L17.8279 10.6392C18.8193 9.70876 19.5383 8.71825 20.0092 7.96248C20.2452 7.58373 20.4204 7.26155 20.5375 7.03188C20.5961 6.91698 20.6403 6.82503 20.6704 6.7605C20.6854 6.72823 20.6969 6.7028 20.705 6.68476C20.709 6.67574 20.7122 6.66856 20.7145 6.6633C20.7156 6.66068 20.7166 6.65852 20.7173 6.65686C20.7177 6.65603 20.718 6.65532 20.7182 6.65473C20.7183 6.65444 20.7184 6.65418 20.7185 6.65395C20.7186 6.65383 20.7187 6.65368 20.7187 6.65362C20.7187 6.65348 20.7188 6.65334 20.1673 6.41699ZM17.4173 10.2018L17.0067 9.76428C16.213 10.5092 15.2378 11.2 14.0692 11.66L14.2889 12.2183L14.5087 12.7766C15.8471 12.2498 16.9481 11.4651 17.8279 10.6392L17.4173 10.2018ZM17.4173 10.2018L16.9931 10.626L18.3681 12.001L18.7923 11.5768L19.2166 11.1525L17.8416 9.7775L17.4173 10.2018ZM11.0007 12.8337H10.4007V15.1253H11.0007H11.6007V12.8337H11.0007ZM14.2889 12.2183L13.786 12.5455L15.0811 14.5359L15.584 14.2087L16.0869 13.8814L14.7918 11.8911L14.2889 12.2183ZM4.58398 10.2018L4.15972 9.7775L2.78472 11.1525L3.20898 11.5768L3.63325 12.001L5.00825 10.626L4.58398 10.2018Z" fill="black"/>
</svg>
