<svg width="22" height="22" viewBox="0 0 22 22" fill="none" xmlns="http://www.w3.org/2000/svg">
<path d="M3.00264 14.0214C2.22353 13.0092 1.83398 12.5031 1.83398 11.0003C1.83398 9.49756 2.22353 8.99148 3.00264 7.9793C4.55828 5.95825 7.16725 3.66699 11.0007 3.66699C14.834 3.66699 17.443 5.95825 18.9987 7.9793C19.7778 8.99147 20.1673 9.49756 20.1673 11.0003C20.1673 12.5031 19.7778 13.0092 18.9987 14.0214C17.443 16.0424 14.834 18.3337 11.0007 18.3337C7.16726 18.3337 4.55829 16.0424 3.00264 14.0214Z" stroke="black" strokeWidth="1.2"/>
<path d="M13.75 11C13.75 12.5188 12.5188 13.75 11 13.75C9.48122 13.75 8.25 12.5188 8.25 11C8.25 9.48122 9.48122 8.25 11 8.25C12.5188 8.25 13.75 9.48122 13.75 11Z" stroke="black" strokeWidth="1.2"/>
</svg>
